<?xml version="1.0" standalone="no"?>
<!DOCTYPE svg PUBLIC "-//W3C//DTD SVG 20010904//EN"
 "http://www.w3.org/TR/2001/REC-SVG-20010904/DTD/svg10.dtd">
<svg version="1.0" xmlns="http://www.w3.org/2000/svg"
 width="1260.000000pt" height="1280.000000pt" viewBox="0 0 1260.000000 1280.000000"
 preserveAspectRatio="xMidYMid meet">
<metadata>
Created by potrace 1.15, written by Peter Selinger 2001-2017
</metadata>
<g transform="translate(0.000000,1280.000000) scale(0.100000,-0.100000)"
fill="#000000" stroke="none">
<path d="M7395 12794 c-38 -2 -164 -8 -280 -14 -1021 -51 -2229 -229 -2770
-408 -515 -170 -1549 -729 -2400 -1295 -839 -559 -1407 -1044 -1656 -1414
-145 -214 -216 -487 -266 -1013 -22 -233 -25 -1204 -5 -1535 68 -1126 226
-2208 403 -2752 194 -598 880 -1835 1521 -2740 448 -634 829 -1068 1138 -1295
246 -181 520 -256 1130 -310 187 -16 1002 -16 1280 0 1113 67 2205 227 2747
403 615 199 1886 909 2803 1566 720 514 1168 936 1332 1251 124 238 190 585
219 1163 21 409 2 1224 -41 1750 -77 944 -235 1895 -387 2332 -140 403 -501
1109 -910 1782 -723 1187 -1413 2034 -1870 2295 -190 109 -527 183 -998 220
-130 11 -859 21 -990 14z"/>
</g>
</svg>
